<svg width="15" height="16" viewBox="0 0 15 16" fill="none" xmlns="http://www.w3.org/2000/svg">
<path d="M7.5 0.5C3.36 0.5 0 3.86 0 8C0 12.14 3.36 15.5 7.5 15.5C11.64 15.5 15 12.14 15 8C15 3.86 11.64 0.5 7.5 0.5ZM8.25 13.25H6.75V11.75H8.25V13.25ZM9.8025 7.4375L9.1275 8.1275C8.5875 8.675 8.25 9.125 8.25 10.25H6.75V9.875C6.75 9.05 7.0875 8.3 7.6275 7.7525L8.5575 6.8075C8.835 6.5375 9 6.1625 9 5.75C9 4.925 8.325 4.25 7.5 4.25C6.675 4.25 6 4.925 6 5.75H4.5C4.5 4.0925 5.8425 2.75 7.5 2.75C9.1575 2.75 10.5 4.0925 10.5 5.75C10.5 6.41 10.23 7.01 9.8025 7.4375Z" fill="white"/>
</svg>
