<svg width="17" height="18" viewBox="0 0 17 18" fill="none" xmlns="http://www.w3.org/2000/svg">
<path d="M3.25 1.5C3.25 1.0875 2.9125 0.75 2.5 0.75C2.0875 0.75 1.75 1.0875 1.75 1.5V4.5H0.25V9H4.75V4.5H3.25V1.5ZM6.25 12C6.25 12.975 6.88 13.8 7.75 14.115V17.25H9.25V14.115C10.12 13.8075 10.75 12.9825 10.75 12V10.5H6.25V12ZM0.25 12C0.25 12.975 0.88 13.8 1.75 14.115V17.25H3.25V14.115C4.12 13.8 4.75 12.975 4.75 12V10.5H0.25V12ZM15.25 4.5V1.5C15.25 1.0875 14.9125 0.75 14.5 0.75C14.0875 0.75 13.75 1.0875 13.75 1.5V4.5H12.25V9H16.75V4.5H15.25ZM9.25 1.5C9.25 1.0875 8.9125 0.75 8.5 0.75C8.0875 0.75 7.75 1.0875 7.75 1.5V4.5H6.25V9H10.75V4.5H9.25V1.5ZM12.25 12C12.25 12.975 12.88 13.8 13.75 14.115V17.25H15.25V14.115C16.12 13.8075 16.75 12.9825 16.75 12V10.5H12.25V12Z" fill="white"/>
</svg>
