<svg width="32" height="32" viewBox="0 0 48 44" fill="none" xmlns="http://www.w3.org/2000/svg">
<g filter="url(#filter0_d_223_4057)">
<path d="M18 28H22V12H18V28ZM24 0C12.96 0 4 8.96 4 20C4 31.04 12.96 40 24 40C35.04 40 44 31.04 44 20C44 8.96 35.04 0 24 0ZM24 36C15.18 36 8 28.82 8 20C8 11.18 15.18 4 24 4C32.82 4 40 11.18 40 20C40 28.82 32.82 36 24 36ZM26 28H30V12H26V28Z" fill="white"/>
</g>
<defs>
<filter id="filter0_d_223_4057" x="0" y="0" width="48" height="48" filterUnits="userSpaceOnUse" color-interpolation-filters="sRGB">
<feFlood flood-opacity="0" result="BackgroundImageFix"/>
<feColorMatrix in="SourceAlpha" type="matrix" values="0 0 0 0 0 0 0 0 0 0 0 0 0 0 0 0 0 0 127 0" result="hardAlpha"/>
<feOffset dy="4"/>
<feGaussianBlur stdDeviation="2"/>
<feComposite in2="hardAlpha" operator="out"/>
<feColorMatrix type="matrix" values="0 0 0 0 0 0 0 0 0 0 0 0 0 0 0 0 0 0 0.25 0"/>
<feBlend mode="normal" in2="BackgroundImageFix" result="effect1_dropShadow_223_4057"/>
<feBlend mode="normal" in="SourceGraphic" in2="effect1_dropShadow_223_4057" result="shape"/>
</filter>
</defs>
</svg>
