<svg width="30" height="30" viewBox="0 0 30 30" fill="none" xmlns="http://www.w3.org/2000/svg">
<g filter="url(#filter0_d_223_13933)">
<path d="M12.5 20.625L20 15L12.5 9.375V20.625ZM15 2.5C8.1 2.5 2.5 8.1 2.5 15C2.5 21.9 8.1 27.5 15 27.5C21.9 27.5 27.5 21.9 27.5 15C27.5 8.1 21.9 2.5 15 2.5ZM15 25C9.4875 25 5 20.5125 5 15C5 9.4875 9.4875 5 15 5C20.5125 5 25 9.4875 25 15C25 20.5125 20.5125 25 15 25Z" fill="#009688"/>
</g>
<defs>
<filter id="filter0_d_223_13933" x="-1.5" y="-0.5" width="33" height="33" filterUnits="userSpaceOnUse" color-interpolation-filters="sRGB">
<feFlood flood-opacity="0" result="BackgroundImageFix"/>
<feColorMatrix in="SourceAlpha" type="matrix" values="0 0 0 0 0 0 0 0 0 0 0 0 0 0 0 0 0 0 127 0" result="hardAlpha"/>
<feOffset dy="1"/>
<feGaussianBlur stdDeviation="2"/>
<feComposite in2="hardAlpha" operator="out"/>
<feColorMatrix type="matrix" values="0 0 0 0 0 0 0 0 0 0 0 0 0 0 0 0 0 0 0.25 0"/>
<feBlend mode="normal" in2="BackgroundImageFix" result="effect1_dropShadow_223_13933"/>
<feBlend mode="normal" in="SourceGraphic" in2="effect1_dropShadow_223_13933" result="shape"/>
</filter>
</defs>
</svg>
